<svg xmlns="http://www.w3.org/2000/svg" width="200" height="200" style="shape-rendering:geometricPrecision;text-rendering:geometricPrecision;image-rendering:optimizeQuality;fill-rule:evenodd;clip-rule:evenodd"><path style="opacity:.982" fill="#fdfdfd" d="M89.5-.5h20c51 9 81 39 90 90v20c-9 51-39 81-90 90h-20c-51-9-81-39-90-90v-20c9-51 39-81 90-90Z"/><path style="opacity:1" fill="#5a4d7d" d="M101.5 13.5a20.677 20.677 0 0 0-5 1c1.42-2.427 2.42-5.094 3-8a86.973 86.973 0 0 1 2 7Z"/><path style="opacity:1" fill="#281755" d="M101.5 13.5c5.711 2.403 7.545 6.736 5.5 13-1.999 1.846-2.832 4.18-2.5 7a52.141 52.141 0 0 0 1.5 10c17.214 3.223 30.714 12.057 40.5 26.5a14.439 14.439 0 0 1 5.5 2.5c.638 3.036.472 6.036-.5 9a131.394 131.394 0 0 1 2.5 11 224.992 224.992 0 0 0 30.5 5 15787.35 15787.35 0 0 1-31 2c10.492.667 20.826 1.333 31 2a495.105 495.105 0 0 0-31 4.5 69.341 69.341 0 0 1-7.5 19.5c-.87-.608-1.37-1.441-1.5-2.5a84.057 84.057 0 0 0 5-15.5 232.246 232.246 0 0 0-30 4.5l19 25-1 .5a1073.716 1073.716 0 0 1-25.5-18 157.49 157.49 0 0 0-4 29 164.924 164.924 0 0 0 12-4l2.5 2.5a48.755 48.755 0 0 1-16 4.5 45.858 45.858 0 0 0-1.5 17c2.477 3.224 3.143 6.89 2 11a81.338 81.338 0 0 1-5.5 5c-1.333-1.333-2.667-1.333-4 0-3.155-1.819-5.155-4.485-6-8-41.655-7.252-65.322-31.919-71-74l-6-1c1.87-.665 3.87-1.331 6-2a168.86 168.86 0 0 1-6-2l6-1c3.907-42.834 26.907-68.5 69-77a25.638 25.638 0 0 1 7-5 20.677 20.677 0 0 1 5-1Z"/><path style="opacity:1" fill="#fbfafc" d="M68.5 66.5c-2.103-2.625-4.77-4.125-8-4.5a68.884 68.884 0 0 0 6 7.5 320.26 320.26 0 0 0 13 17.5 232.187 232.187 0 0 1-30 4.5c.006-5.526 1.34-10.693 4-15.5-1.964-1.794-3.464-1.294-4.5 1.5a86.878 86.878 0 0 1-4.5 15 103.191 103.191 0 0 1-20 3c2.091-31.581 17.425-54.081 46-67.5 6.394-2.934 13.06-4.267 20-4 4.474 5.864 5.308 12.364 2.5 19.5a62.185 62.185 0 0 0-19.5 7c.387 1.22 1.22 1.886 2.5 2a43.126 43.126 0 0 1 16.5-5 1064.766 1064.766 0 0 1-5.5 32 191.986 191.986 0 0 0-18.5-13Z"/><path style="opacity:1" fill="#57497a" d="M98.5 30.5c1.3 1.723 1.967 3.89 2 6.5l-1 6.5a43.123 43.123 0 0 1-1-13Z"/><path style="opacity:1" fill="#574b7b" d="M98.5 47.5c1.327 4.451 1.994 9.284 2 14.5l-1 14.5a211.12 211.12 0 0 1-1-29Z"/><path style="opacity:1" fill="#f9f9fa" d="M106.5 47.5c11.297 1.648 20.964 6.482 29 14.5A316.114 316.114 0 0 0 112 79.5a1065.402 1065.402 0 0 1-5.5-32ZM149.5 88.5v3h-3a302.321 302.321 0 0 1-27-4.5A949.173 949.173 0 0 1 137 63.5c5.318 4.27 7.484 9.604 6.5 16 1.35 1.45 3.016 2.117 5 2a51.56 51.56 0 0 1 1 7Z"/><path style="opacity:1" fill="#524476" d="M68.5 66.5c-.832.829-.499 1.662 1 2.5-1.269-.109-2.269.058-3 .5a68.884 68.884 0 0 1-6-7.5c3.23.375 5.897 1.875 8 4.5Z"/><path style="opacity:1" fill="#f1f0f4" d="M100.5 117.5a19.24 19.24 0 0 1-1-6c-1.723-2.28-2.39-4.947-2-8a11.449 11.449 0 0 1-3-5c-.833-2.252-.833-4.419 0-6.5-1.063-1.188-2.397-1.688-4-1.5a71.232 71.232 0 0 1 3 9c0 .667-.333 1-1 1-2.705.12-3.371-.88-2-3-1.333-1.333-2.667-1.333-4 0 1.02 1.401 2.02 2.735 3 4 1.542.663 3.209 1.33 5 2 .928 1.268 1.095 2.601.5 4-1.085-3.317-2.585-3.651-4.5-1 4.251 1.757 6.918 4.924 8 9.5-.07.765-.403 1.265-1 1.5a62.008 62.008 0 0 1-15-14.5L87 87.5c.637-1.803 1.803-3.136 3.5-4a99.458 99.458 0 0 1 9.5 7c3.82-2.579 7.82-4.912 12-7 2.723 4.225 3.89 8.892 3.5 14 .477 7.544-2.19 13.711-8 18.5-2.177 1.202-4.511 1.702-7 1.5Z"/><path style="opacity:1" fill="#382761" d="M94.5 98.5c0 .667-.333 1-1 1a71.232 71.232 0 0 0-3-9c1.603-.188 2.937.312 4 1.5-.833 2.081-.833 4.248 0 6.5Z"/><path style="opacity:1" fill="#9188a8" d="M149.5 88.5c.934 1.068 1.268 2.401 1 4-1.599.268-2.932-.066-4-1h3v-3Z"/><path style="opacity:1" fill="#6a5e89" d="M102.5 91.5c1.725.343 2.225 1.343 1.5 3-1.039-.744-1.539-1.744-1.5-3Z"/><path style="opacity:1" fill="#382861" d="M92.5 100.5c-.709.904-1.709 1.237-3 1-.98-1.265-1.98-2.599-3-4 1.333-1.333 2.667-1.333 4 0-1.371 2.12-.705 3.12 2 3Z"/><path style="opacity:1" fill="#3b2b64" d="M107.5 93.5c1.297 1.349 1.13 2.682-.5 4-.195-1.32-.028-2.653.5-4Z"/><path style="opacity:1" fill="#5a4d7c" d="M14.5 97.5c1.87.665 3.87 1.331 6 2-2.13.669-4.13 1.335-6 2-10.667-1.333-10.667-2.667 0-4Z"/><path style="opacity:1" fill="#403067" d="M97.5 103.5c.453-.958 1.12-1.792 2-2.5-2.579-1.612-2.579-3.112 0-4.5 1 .333 1.667 1 2 2a28.912 28.912 0 0 0-1.5 4c-.67.752-1.504 1.086-2.5 1Z"/><path style="opacity:1" fill="#574b7b" d="M24.5 98.5c7.032-.33 14.032.003 21 1l-10.5 1c-3.902-.012-7.402-.679-10.5-2Z"/><path style="opacity:1" fill="#574a7a" d="M48.5 98.5a196.88 196.88 0 0 1 28 1l-14 1c-5.05-.007-9.718-.673-14-2Z"/><path style="opacity:1" fill="#574b7b" d="M122.5 98.5c9.357-.332 18.69.002 28 1l-14 1c-5.051-.007-9.717-.673-14-2Z"/><path style="opacity:1" fill="#594c7b" d="M184.5 97.5c10.667 1.333 10.667 2.667 0 4-10.174-.667-20.508-1.333-31-2a15787.35 15787.35 0 0 0 31-2Z"/><path style="opacity:1" fill="#35245e" d="M109.5 98.5a2.427 2.427 0 0 1 2 .5l-5.5 5.5-.5-1.5a25.593 25.593 0 0 0 4-4.5Z"/><path style="opacity:1" fill="#fbfbfc" d="M24.5 103.5a165.666 165.666 0 0 1 22 3c-.161 3.028.506 5.861 2 8.5-3.304 5.558-1.804 9.058 4.5 10.5 9.065 14.79 22.232 23.456 39.5 26 5.865 19.304-.468 25.138-19 17.5-29.085-12.352-45.418-34.185-49-65.5Z"/><path style="opacity:1" fill="#f8f8f9" d="M49.5 108.5c9.941-.176 19.941.991 30 3.5a526.301 526.301 0 0 1-16 21.5 111.092 111.092 0 0 1-8-9.5c3.347-5.48 1.847-8.98-4.5-10.5-.198-1.882-.698-3.548-1.5-5Z"/><path style="opacity:1" fill="#504174" d="M94.5 98.5a11.449 11.449 0 0 0 3 5c-.39 3.053.277 5.72 2 8a19.24 19.24 0 0 0 1 6c-1.152 1.125-2.152 1.125-3 0 .597-.235.93-.735 1-1.5-1.082-4.576-3.749-7.743-8-9.5 1.915-2.651 3.415-2.317 4.5 1 .595-1.399.428-2.732-.5-4a112.088 112.088 0 0 1-5-2c1.291.237 2.291-.096 3-1 .667 0 1-.333 1-1 .667 0 1-.333 1-1Z"/><path style="opacity:1" fill="#2c1b58" d="M99.5 111.5c-.285-1.788.048-3.455 1-5 2.535 1.994 2.201 3.661-1 5Z"/><path style="opacity:1" fill="#382761" d="M106.5 108.5a2.428 2.428 0 0 1 2 .5 31.84 31.84 0 0 1-5 4.5c-1.021-.502-1.188-1.168-.5-2 1.518-.663 2.685-1.663 3.5-3Z"/><path style="opacity:1" fill="#f7f7f9" d="M86.5 119.5c2.921 8.956 4.588 18.289 5 28-9.997-.832-18.664-4.665-26-11.5a188.582 188.582 0 0 0 21-16.5Z"/><path style="opacity:1" fill="#574b7b" d="M98.5 122.5c1.326 3.945 1.992 8.278 2 13l-1 13a169.875 169.875 0 0 1-1-26ZM98.5 152.5c1.305 1.897 1.971 4.231 2 7l-1 7a49.874 49.874 0 0 1-1-14Z"/><path style="opacity:1" fill="#5c4f7e" d="M101.5 184.5c-1.333 10.667-2.667 10.667-4 0 1.333-1.333 2.667-1.333 4 0Z"/></svg>